<svg xmlns="http://www.w3.org/2000/svg" xmlns:xlink="http://www.w3.org/1999/xlink" width="500" zoomAndPan="magnify" viewBox="0 0 375 374.999991" height="500" preserveAspectRatio="xMidYMid meet" version="1.0"><defs><g><g id="id1"/><g id="id2"/><g id="id3"/></g><clipPath id="id4"><path d="M 155 2.25 L 304 2.25 L 304 221 L 155 221 Z M 155 2.25 " clip-rule="nonzero"/></clipPath><clipPath id="id5"><path d="M 24 138 L 332 138 L 332 271.5 L 24 271.5 Z M 24 138 " clip-rule="nonzero"/></clipPath><clipPath id="id6"><path d="M 150.71875 94.078125 L 206.21875 94.078125 L 206.21875 149.578125 L 150.71875 149.578125 Z M 150.71875 94.078125 " clip-rule="nonzero"/></clipPath></defs><path fill="rgb(32.159424%, 44.309998%, 100%)" d="M 85.890625 134.960938 C 85.890625 141.417969 91.132812 146.660156 97.613281 146.660156 L 155.0625 146.660156 L 155.0625 180.277344 C 168.800781 183.71875 184.347656 186.671875 201.640625 189.089844 L 201.640625 146.660156 L 259.085938 146.660156 C 265.558594 146.660156 270.808594 141.417969 270.808594 134.960938 L 270.808594 111.867188 C 270.808594 105.410156 265.558594 100.167969 259.085938 100.167969 L 201.640625 100.167969 L 201.640625 63.449219 C 187.886719 60.074219 172.339844 57.214844 155.0625 54.910156 L 155.0625 100.167969 L 97.613281 100.167969 C 91.132812 100.167969 85.890625 105.410156 85.890625 111.867188 L 85.890625 134.960938 " fill-opacity="1" fill-rule="nonzero"/><g clip-path="url(#id4)"><path fill="rgb(94.119263%, 43.528748%, 14.509583%)" d="M 201.640625 35.492188 L 201.640625 25.507812 C 201.640625 12.664062 191.210938 2.261719 178.351562 2.261719 C 166.035156 2.261719 155.984375 11.800781 155.140625 23.878906 C 155.09375 23.867188 155.0625 23.859375 155.0625 23.859375 L 155.0625 49.222656 C 412.664062 83.285156 203.390625 220.75 203.390625 220.75 C 387.277344 114.273438 274.054688 57.835938 201.640625 35.492188 " fill-opacity="1" fill-rule="nonzero"/></g><g clip-path="url(#id5)"><path fill="rgb(32.159424%, 44.309998%, 100%)" d="M 302.644531 138.085938 C 300.933594 142.027344 298.785156 146.011719 296.191406 150.039062 C 308.710938 160.957031 315.914062 173.75 315.914062 187.425781 C 315.914062 227.417969 254.359375 259.839844 178.425781 259.839844 C 102.488281 259.839844 40.9375 227.417969 40.9375 187.425781 C 40.9375 175.339844 46.5625 163.953125 56.503906 153.9375 C 54.097656 149.605469 52.308594 145.054688 51.238281 140.28125 C 34.570312 153.726562 24.835938 169.949219 24.835938 187.425781 C 24.835938 233.851562 93.5625 271.488281 178.351562 271.488281 C 263.136719 271.488281 331.863281 233.851562 331.863281 187.425781 C 331.863281 168.992188 321.019531 151.949219 302.644531 138.085938 " fill-opacity="1" fill-rule="nonzero"/></g><path fill="rgb(0%, 50.19989%, 21.569824%)" d="M 155.0625 25.507812 C -29.363281 130.746094 82.925781 187.144531 155.0625 209.585938 L 155.0625 221.320312 C 155.0625 234.15625 165.488281 244.566406 178.351562 244.566406 C 191.210938 244.566406 201.640625 234.15625 201.640625 221.320312 L 201.640625 194.789062 C -55.746094 159.105469 155.0625 25.507812 155.0625 25.507812 " fill-opacity="1" fill-rule="nonzero"/><g clip-path="url(#id6)"><path fill="rgb(20.779419%, 20.388794%, 20.388794%)" d="M 206.230469 121.835938 C 206.230469 137.164062 193.804688 149.589844 178.476562 149.589844 C 163.152344 149.589844 150.726562 137.164062 150.726562 121.835938 C 150.726562 106.511719 163.152344 94.085938 178.476562 94.085938 C 193.804688 94.085938 206.230469 106.511719 206.230469 121.835938 " fill-opacity="1" fill-rule="nonzero"/></g><path fill="rgb(100%, 100%, 100%)" d="M 204.394531 121.835938 C 204.394531 118.808594 203.875 115.902344 202.917969 113.199219 L 154.035156 113.199219 C 153.078125 115.902344 152.558594 118.808594 152.558594 121.835938 C 152.558594 124.867188 153.078125 127.773438 154.035156 130.476562 L 202.917969 130.476562 C 203.875 127.773438 204.394531 124.867188 204.394531 121.835938 " fill-opacity="1" fill-rule="nonzero"/><path fill="rgb(15.289307%, 25.489807%, 60.389709%)" d="M 178.695312 119.535156 L 178.476562 115.605469 L 178.261719 119.535156 L 178.476562 120.507812 L 178.695312 119.535156 " fill-opacity="1" fill-rule="nonzero"/><path fill="rgb(15.289307%, 25.489807%, 60.389709%)" d="M 178.476562 123.167969 L 178.261719 124.140625 L 178.476562 128.070312 L 178.695312 124.140625 L 178.476562 123.167969 " fill-opacity="1" fill-rule="nonzero"/><path fill="rgb(15.289307%, 25.489807%, 60.389709%)" d="M 179.808594 121.835938 L 180.777344 122.054688 L 184.707031 121.835938 L 180.777344 121.621094 L 179.808594 121.835938 " fill-opacity="1" fill-rule="nonzero"/><path fill="rgb(15.289307%, 25.489807%, 60.389709%)" d="M 177.148438 121.835938 L 176.175781 121.621094 L 172.246094 121.835938 L 176.175781 122.054688 L 177.148438 121.835938 " fill-opacity="1" fill-rule="nonzero"/><path fill="rgb(15.289307%, 25.489807%, 60.389709%)" d="M 179.507812 120.996094 L 180.398438 120.550781 L 183.304688 117.894531 L 180.125 120.214844 L 179.507812 120.996094 " fill-opacity="1" fill-rule="nonzero"/><path fill="rgb(15.289307%, 25.489807%, 60.389709%)" d="M 177.445312 122.679688 L 176.558594 123.128906 L 173.652344 125.78125 L 176.832031 123.460938 L 177.445312 122.679688 " fill-opacity="1" fill-rule="nonzero"/><path fill="rgb(15.289307%, 25.489807%, 60.389709%)" d="M 179.320312 122.867188 L 179.765625 123.757812 L 182.421875 126.664062 L 180.101562 123.484375 L 179.320312 122.867188 " fill-opacity="1" fill-rule="nonzero"/><path fill="rgb(15.289307%, 25.489807%, 60.389709%)" d="M 177.636719 120.808594 L 177.1875 119.917969 L 174.535156 117.011719 L 176.851562 120.191406 L 177.636719 120.808594 " fill-opacity="1" fill-rule="nonzero"/><path fill="rgb(15.289307%, 25.489807%, 60.389709%)" d="M 178.476562 123.167969 C 178.585938 123.167969 178.695312 123.152344 178.796875 123.128906 L 178.820312 124.125 L 179.972656 127.886719 L 179.238281 124.023438 L 178.796875 123.128906 C 178.890625 123.105469 178.984375 123.070312 179.074219 123.027344 L 179.3125 123.992188 L 181.261719 127.410156 L 179.699219 123.800781 L 179.074219 123.027344 C 179.25 122.9375 179.402344 122.8125 179.523438 122.65625 L 180.15625 123.429688 L 183.382812 125.679688 L 180.421875 123.085938 L 179.523438 122.65625 C 179.585938 122.582031 179.636719 122.496094 179.679688 122.410156 L 180.464844 123.019531 L 184.109375 124.507812 L 180.648438 122.628906 L 179.679688 122.410156 C 179.71875 122.320312 179.753906 122.226562 179.773438 122.128906 L 180.675781 122.554688 L 184.558594 123.207031 L 180.773438 122.132812 L 179.773438 122.128906 C 179.796875 122.035156 179.808594 121.9375 179.808594 121.835938 C 179.808594 121.726562 179.792969 121.621094 179.769531 121.519531 L 180.765625 121.496094 L 184.527344 120.34375 L 180.660156 121.074219 L 179.769531 121.519531 C 179.746094 121.421875 179.710938 121.328125 179.667969 121.242188 L 180.632812 121 L 184.050781 119.050781 L 180.4375 120.613281 L 179.667969 121.242188 C 179.578125 121.066406 179.453125 120.910156 179.296875 120.789062 L 180.066406 120.160156 L 182.320312 116.933594 L 179.726562 119.890625 L 179.296875 120.789062 C 179.21875 120.730469 179.136719 120.679688 179.046875 120.636719 L 179.660156 119.847656 L 181.148438 116.207031 L 179.269531 119.664062 L 179.046875 120.636719 C 178.960938 120.59375 178.867188 120.5625 178.769531 120.539062 L 179.195312 119.636719 L 179.84375 115.757812 L 178.773438 119.542969 L 178.769531 120.539062 C 178.675781 120.519531 178.578125 120.507812 178.476562 120.507812 C 178.367188 120.507812 178.261719 120.523438 178.15625 120.546875 L 178.136719 119.550781 L 176.984375 115.789062 L 177.714844 119.652344 L 178.15625 120.546875 C 178.0625 120.570312 177.96875 120.605469 177.882812 120.648438 L 177.640625 119.679688 L 175.691406 116.261719 L 177.253906 119.875 L 177.882812 120.648438 C 177.707031 120.734375 177.550781 120.863281 177.429688 121.019531 L 176.800781 120.25 L 173.570312 117.996094 L 176.53125 120.589844 L 177.429688 121.019531 C 177.371094 121.09375 177.316406 121.179688 177.273438 121.269531 L 176.488281 120.65625 L 172.847656 119.167969 L 176.304688 121.046875 L 177.273438 121.269531 C 177.234375 121.355469 177.203125 121.449219 177.179688 121.546875 L 176.277344 121.121094 L 172.398438 120.46875 L 176.183594 121.542969 L 177.179688 121.546875 C 177.160156 121.640625 177.148438 121.738281 177.148438 121.835938 C 177.148438 121.949219 177.160156 122.054688 177.183594 122.15625 L 176.191406 122.179688 L 172.425781 123.332031 L 176.292969 122.597656 L 177.183594 122.15625 C 177.210938 122.253906 177.242188 122.34375 177.289062 122.433594 L 176.320312 122.675781 L 172.902344 124.621094 L 176.515625 123.058594 L 177.289062 122.433594 C 177.375 122.609375 177.503906 122.761719 177.65625 122.886719 L 176.886719 123.519531 L 174.636719 126.742188 L 177.226562 123.78125 L 177.65625 122.886719 C 177.734375 122.945312 177.816406 122.996094 177.90625 123.039062 L 177.296875 123.824219 L 175.804688 127.46875 L 177.6875 124.011719 L 177.90625 123.039062 C 177.996094 123.082031 178.089844 123.113281 178.1875 123.136719 L 177.761719 124.035156 L 177.109375 127.917969 L 178.183594 124.132812 L 178.1875 123.136719 C 178.28125 123.15625 178.375 123.167969 178.476562 123.167969 " fill-opacity="1" fill-rule="nonzero"/><path fill="rgb(15.289307%, 25.489807%, 60.389709%)" d="M 178.21875 128.195312 C 178.199219 127.96875 178.019531 127.792969 177.792969 127.78125 C 177.570312 127.742188 177.355469 127.871094 177.285156 128.085938 C 177.113281 128.054688 176.945312 128.015625 176.78125 127.96875 C 176.816406 127.738281 176.667969 127.515625 176.433594 127.460938 C 176.234375 127.414062 176.035156 127.503906 175.933594 127.671875 C 175.773438 127.597656 175.613281 127.523438 175.457031 127.4375 C 175.527344 127.257812 175.476562 127.042969 175.316406 126.917969 C 175.128906 126.769531 174.859375 126.785156 174.699219 126.957031 C 174.5625 126.855469 174.429688 126.746094 174.296875 126.632812 C 174.425781 126.4375 174.390625 126.171875 174.203125 126.023438 C 174.042969 125.894531 173.824219 125.890625 173.664062 125.996094 C 173.550781 125.863281 173.4375 125.722656 173.335938 125.582031 C 173.472656 125.445312 173.519531 125.234375 173.429688 125.050781 C 173.328125 124.832031 173.078125 124.738281 172.855469 124.820312 C 172.777344 124.667969 172.703125 124.511719 172.632812 124.355469 C 172.835938 124.238281 172.917969 123.980469 172.8125 123.761719 C 172.722656 123.578125 172.53125 123.480469 172.335938 123.507812 C 172.289062 123.335938 172.25 123.164062 172.21875 122.988281 C 172.40625 122.929688 172.539062 122.757812 172.539062 122.550781 C 172.539062 122.3125 172.355469 122.117188 172.121094 122.09375 C 172.117188 122.007812 172.117188 121.921875 172.117188 121.835938 C 172.117188 121.75 172.117188 121.664062 172.121094 121.578125 C 172.34375 121.558594 172.523438 121.378906 172.535156 121.15625 C 172.574219 120.929688 172.441406 120.714844 172.226562 120.644531 C 172.261719 120.476562 172.296875 120.308594 172.34375 120.144531 C 172.578125 120.175781 172.800781 120.023438 172.855469 119.792969 C 172.902344 119.59375 172.808594 119.394531 172.644531 119.296875 C 172.714844 119.132812 172.792969 118.972656 172.878906 118.816406 C 173.058594 118.886719 173.269531 118.835938 173.398438 118.675781 C 173.546875 118.488281 173.527344 118.222656 173.359375 118.058594 C 173.460938 117.921875 173.570312 117.789062 173.679688 117.65625 C 173.878906 117.785156 174.144531 117.75 174.292969 117.5625 C 174.417969 117.402344 174.425781 117.1875 174.316406 117.023438 C 174.453125 116.910156 174.589844 116.800781 174.734375 116.691406 C 174.867188 116.832031 175.082031 116.878906 175.265625 116.789062 C 175.480469 116.6875 175.578125 116.4375 175.496094 116.214844 C 175.648438 116.136719 175.800781 116.0625 175.960938 115.996094 C 176.082031 116.195312 176.335938 116.277344 176.550781 116.171875 C 176.734375 116.085938 176.835938 115.890625 176.808594 115.699219 C 176.976562 115.652344 177.152344 115.613281 177.328125 115.582031 C 177.386719 115.765625 177.5625 115.898438 177.765625 115.898438 C 178.003906 115.898438 178.199219 115.714844 178.21875 115.480469 C 178.304688 115.480469 178.390625 115.476562 178.476562 115.476562 C 178.5625 115.476562 178.648438 115.480469 178.734375 115.480469 C 178.753906 115.707031 178.9375 115.882812 179.164062 115.894531 C 179.382812 115.933594 179.601562 115.800781 179.671875 115.585938 C 179.839844 115.621094 180.007812 115.660156 180.171875 115.707031 C 180.140625 115.9375 180.289062 116.160156 180.519531 116.214844 C 180.722656 116.261719 180.917969 116.171875 181.019531 116.003906 C 181.183594 116.074219 181.34375 116.152344 181.496094 116.238281 C 181.429688 116.417969 181.480469 116.632812 181.640625 116.757812 C 181.828125 116.90625 182.09375 116.890625 182.253906 116.71875 C 182.394531 116.820312 182.527344 116.929688 182.65625 117.042969 C 182.527344 117.238281 182.566406 117.503906 182.753906 117.652344 C 182.910156 117.777344 183.128906 117.78125 183.289062 117.679688 C 183.40625 117.8125 183.519531 117.949219 183.621094 118.09375 C 183.480469 118.230469 183.4375 118.441406 183.523438 118.625 C 183.628906 118.839844 183.878906 118.9375 184.097656 118.855469 C 184.179688 119.007812 184.253906 119.164062 184.320312 119.320312 C 184.117188 119.441406 184.039062 119.695312 184.144531 119.914062 C 184.230469 120.097656 184.425781 120.195312 184.617188 120.167969 C 184.664062 120.339844 184.703125 120.511719 184.734375 120.6875 C 184.550781 120.746094 184.417969 120.917969 184.417969 121.125 C 184.417969 121.363281 184.601562 121.558594 184.832031 121.578125 C 184.835938 121.664062 184.839844 121.75 184.839844 121.835938 C 184.839844 121.921875 184.835938 122.007812 184.832031 122.09375 C 184.609375 122.117188 184.433594 122.296875 184.417969 122.519531 C 184.382812 122.746094 184.515625 122.960938 184.726562 123.03125 C 184.695312 123.199219 184.65625 123.367188 184.609375 123.53125 C 184.378906 123.5 184.15625 123.648438 184.101562 123.882812 C 184.054688 124.082031 184.144531 124.28125 184.3125 124.378906 C 184.238281 124.542969 184.160156 124.703125 184.078125 124.859375 C 183.898438 124.789062 183.683594 124.839844 183.558594 125 C 183.40625 125.1875 183.425781 125.453125 183.597656 125.617188 C 183.492188 125.753906 183.386719 125.886719 183.273438 126.015625 C 183.078125 125.886719 182.8125 125.925781 182.664062 126.113281 C 182.535156 126.269531 182.53125 126.488281 182.636719 126.648438 C 182.503906 126.765625 182.363281 126.878906 182.21875 126.984375 C 182.085938 126.84375 181.871094 126.796875 181.691406 126.886719 C 181.472656 126.988281 181.375 127.238281 181.457031 127.457031 C 181.308594 127.539062 181.152344 127.613281 180.996094 127.679688 C 180.875 127.480469 180.617188 127.398438 180.402344 127.503906 C 180.21875 127.589844 180.121094 127.785156 180.144531 127.976562 C 179.976562 128.023438 179.800781 128.0625 179.628906 128.09375 C 179.566406 127.914062 179.394531 127.777344 179.191406 127.777344 C 178.953125 127.777344 178.753906 127.960938 178.734375 128.195312 C 178.648438 128.199219 178.5625 128.199219 178.476562 128.199219 C 178.390625 128.199219 178.304688 128.199219 178.21875 128.195312 Z M 178.476562 114.792969 C 174.585938 114.792969 171.433594 117.945312 171.433594 121.835938 C 171.433594 125.730469 174.585938 128.882812 178.476562 128.882812 C 182.367188 128.882812 185.523438 125.730469 185.523438 121.835938 C 185.523438 117.945312 182.367188 114.792969 178.476562 114.792969 " fill-opacity="1" fill-rule="nonzero"/><path fill="rgb(96.469116%, 53.329468%, 19.219971%)" d="M 178.476562 95.917969 C 167.191406 95.917969 157.59375 103.128906 154.035156 113.199219 L 202.917969 113.199219 C 199.359375 103.128906 189.761719 95.917969 178.476562 95.917969 " fill-opacity="1" fill-rule="nonzero"/><path fill="rgb(18.429565%, 45.489502%, 31.369019%)" d="M 202.917969 130.476562 L 154.035156 130.476562 C 157.59375 140.542969 167.191406 147.757812 178.476562 147.757812 C 189.761719 147.757812 199.359375 140.542969 202.917969 130.476562 " fill-opacity="1" fill-rule="nonzero"/><path fill="rgb(15.689087%, 16.859436%, 17.248535%)" d="M 178.476562 147.757812 L 178.460938 147.757812 L 178.476562 147.757812 M 178.496094 147.757812 L 178.5 147.757812 L 178.496094 147.757812 M 178.457031 147.757812 L 178.449219 147.757812 L 178.457031 147.757812 M 178.441406 147.757812 L 178.429688 147.757812 L 178.441406 147.757812 M 178.515625 147.757812 L 178.523438 147.757812 L 178.515625 147.757812 M 178.425781 147.757812 L 178.414062 147.757812 L 178.425781 147.757812 M 178.535156 147.757812 L 178.542969 147.757812 L 178.535156 147.757812 M 178.410156 147.757812 L 178.394531 147.757812 L 178.410156 147.757812 M 178.5625 147.757812 L 178.566406 147.757812 L 178.5625 147.757812 M 178.390625 147.757812 L 178.378906 147.757812 L 178.390625 147.757812 M 178.375 147.757812 L 178.367188 147.757812 L 178.375 147.757812 M 178.578125 147.757812 L 178.585938 147.757812 L 178.578125 147.757812 M 178.359375 147.757812 L 178.347656 147.757812 L 178.359375 147.757812 M 178.597656 147.757812 L 178.605469 147.757812 L 178.597656 147.757812 M 178.34375 147.757812 L 178.328125 147.757812 L 178.34375 147.757812 M 178.621094 147.757812 L 178.625 147.757812 L 178.621094 147.757812 M 178.324219 147.757812 L 178.316406 147.757812 L 178.324219 147.757812 M 178.644531 147.757812 L 178.648438 147.757812 L 178.644531 147.757812 M 178.308594 147.757812 L 178.296875 147.757812 L 178.308594 147.757812 M 178.292969 147.757812 L 178.28125 147.757812 L 178.292969 147.757812 M 178.664062 147.757812 L 178.667969 147.757812 L 178.664062 147.757812 M 178.277344 147.757812 L 178.261719 147.757812 L 178.277344 147.757812 M 178.683594 147.757812 L 178.6875 147.757812 L 178.683594 147.757812 M 178.261719 147.757812 L 178.246094 147.757812 L 178.261719 147.757812 M 178.703125 147.757812 L 178.707031 147.757812 L 178.703125 147.757812 M 178.242188 147.757812 L 178.234375 147.757812 L 178.242188 147.757812 M 178.726562 147.757812 L 178.734375 147.757812 L 178.726562 147.757812 M 178.226562 147.757812 L 178.214844 147.757812 L 178.226562 147.757812 M 178.210938 147.757812 C 178.207031 147.757812 178.203125 147.757812 178.199219 147.753906 C 178.199219 147.757812 178.207031 147.757812 178.210938 147.757812 M 178.746094 147.757812 L 178.753906 147.757812 L 178.746094 147.757812 M 178.195312 147.753906 L 178.183594 147.753906 L 178.195312 147.753906 M 178.765625 147.753906 L 178.773438 147.753906 L 178.765625 147.753906 M 178.175781 147.753906 L 178.164062 147.753906 L 178.175781 147.753906 M 178.789062 147.753906 L 178.792969 147.753906 L 178.789062 147.753906 M 178.160156 147.753906 L 178.152344 147.753906 L 178.160156 147.753906 M 178.144531 147.753906 L 178.132812 147.753906 L 178.144531 147.753906 M 178.808594 147.753906 L 178.816406 147.753906 L 178.808594 147.753906 M 178.128906 147.753906 L 178.113281 147.753906 L 178.128906 147.753906 M 178.828125 147.753906 L 178.835938 147.753906 L 178.828125 147.753906 M 178.113281 147.753906 L 178.097656 147.753906 L 178.113281 147.753906 M 178.847656 147.753906 L 178.855469 147.753906 L 178.847656 147.753906 M 178.09375 147.753906 L 178.082031 147.753906 L 178.09375 147.753906 M 178.875 147.753906 L 178.878906 147.753906 L 178.875 147.753906 M 178.078125 147.753906 L 178.066406 147.753906 L 178.078125 147.753906 M 178.066406 147.753906 C 178.054688 147.753906 178.042969 147.753906 178.03125 147.753906 C 178.042969 147.753906 178.054688 147.753906 178.066406 147.753906 M 178.890625 147.753906 L 178.902344 147.753906 L 178.890625 147.753906 M 178.914062 147.753906 L 178.917969 147.753906 L 178.914062 147.753906 M 178.027344 147.753906 L 178.019531 147.753906 L 178.027344 147.753906 M 178.933594 147.753906 L 178.9375 147.753906 L 178.933594 147.753906 M 178.015625 147.753906 L 178 147.753906 L 178.015625 147.753906 M 178 147.753906 L 177.964844 147.753906 L 178 147.753906 M 178.957031 147.753906 L 178.964844 147.753906 L 178.957031 147.753906 M 178.976562 147.753906 L 178.984375 147.753906 L 178.976562 147.753906 M 177.964844 147.753906 C 177.960938 147.75 177.957031 147.75 177.949219 147.75 C 177.953125 147.75 177.960938 147.75 177.964844 147.753906 M 178.996094 147.75 L 179 147.75 L 178.996094 147.75 M 177.945312 147.75 L 177.9375 147.75 L 177.945312 147.75 M 179.015625 147.75 L 179.027344 147.75 L 179.015625 147.75 M 177.933594 147.75 L 177.902344 147.75 L 177.933594 147.75 M 179.039062 147.75 L 179.046875 147.75 L 179.039062 147.75 M 177.898438 147.75 L 177.886719 147.75 L 177.898438 147.75 M 179.058594 147.75 L 179.066406 147.75 L 179.058594 147.75 M 177.882812 147.75 L 177.867188 147.75 L 177.882812 147.75 M 179.078125 147.75 L 179.085938 147.75 L 179.078125 147.75 M 177.867188 147.75 C 177.851562 147.75 177.835938 147.75 177.816406 147.75 C 177.835938 147.75 177.851562 147.75 177.867188 147.75 M 179.09375 147.75 C 179.101562 147.75 179.109375 147.75 179.113281 147.75 C 179.109375 147.75 179.101562 147.75 179.09375 147.75 M 179.121094 147.75 L 179.132812 147.75 L 179.121094 147.75 M 177.816406 147.75 L 177.800781 147.75 L 177.816406 147.75 M 179.140625 147.75 L 179.152344 147.75 L 179.140625 147.75 M 177.800781 147.75 C 177.785156 147.746094 177.769531 147.746094 177.75 147.746094 C 177.769531 147.746094 177.785156 147.746094 177.800781 147.75 M 179.160156 147.746094 L 179.199219 147.746094 L 179.160156 147.746094 M 177.75 147.746094 L 177.734375 147.746094 L 177.75 147.746094 M 179.203125 147.746094 L 179.214844 147.746094 L 179.203125 147.746094 M 177.734375 147.746094 C 168.898438 147.5 161.167969 142.824219 156.679688 135.867188 C 156.679688 135.867188 156.683594 135.867188 156.683594 135.867188 C 161.171875 142.828125 168.898438 147.5 177.738281 147.746094 M 179.222656 147.746094 L 179.234375 147.746094 L 179.222656 147.746094 M 179.238281 147.746094 L 179.265625 147.746094 L 179.238281 147.746094 M 179.269531 147.746094 L 179.28125 147.746094 L 179.269531 147.746094 M 179.285156 147.746094 L 179.300781 147.746094 L 179.285156 147.746094 M 179.304688 147.746094 C 179.324219 147.742188 179.34375 147.742188 179.363281 147.742188 C 179.34375 147.742188 179.324219 147.742188 179.304688 147.746094 M 179.367188 147.742188 L 179.382812 147.742188 L 179.367188 147.742188 M 179.386719 147.742188 C 179.40625 147.742188 179.425781 147.738281 179.449219 147.738281 C 179.425781 147.738281 179.40625 147.742188 179.386719 147.742188 M 179.449219 147.738281 C 179.476562 147.738281 179.503906 147.738281 179.53125 147.734375 C 179.503906 147.738281 179.476562 147.738281 179.449219 147.738281 M 179.53125 147.734375 C 190.355469 147.300781 199.472656 140.230469 202.917969 130.476562 L 195.351562 130.476562 L 202.917969 130.476562 C 203.855469 127.828125 204.375 124.980469 204.394531 122.015625 C 204.304688 135.898438 193.296875 147.183594 179.53125 147.734375 M 204.394531 122.015625 L 204.394531 122 L 204.394531 122.015625 M 204.394531 121.996094 L 204.394531 121.980469 L 204.394531 121.996094 M 204.394531 121.972656 L 204.394531 121.953125 L 204.394531 121.972656 M 204.394531 121.945312 L 204.394531 121.933594 L 204.394531 121.945312 M 204.394531 121.921875 L 204.394531 121.917969 L 204.394531 121.921875 M 204.394531 121.90625 L 204.394531 121.894531 L 204.394531 121.90625 M 204.394531 121.882812 L 204.394531 121.875 L 204.394531 121.882812 M 204.394531 121.863281 L 204.394531 121.855469 L 204.394531 121.863281 M 204.394531 121.835938 L 204.394531 121.824219 L 204.394531 121.835938 M 204.394531 121.820312 L 204.394531 121.800781 L 204.394531 121.820312 M 204.394531 121.800781 L 204.394531 121.785156 L 204.394531 121.800781 M 204.394531 121.785156 C 204.390625 118.773438 203.871094 115.882812 202.917969 113.199219 C 201.410156 108.925781 198.8125 105.167969 195.460938 102.257812 L 195.457031 102.253906 C 200.921875 106.996094 204.382812 113.984375 204.394531 121.785156 " fill-opacity="1" fill-rule="nonzero"/><path fill="rgb(69.018555%, 75.289917%, 78.42865%)" d="M 202.917969 130.476562 L 195.347656 130.476562 C 198.023438 126.398438 199.578125 121.523438 199.578125 116.285156 C 199.578125 115.238281 199.515625 114.210938 199.398438 113.199219 L 202.917969 113.199219 C 203.871094 115.882812 204.390625 118.773438 204.394531 121.785156 L 204.394531 122.015625 C 204.375 124.980469 203.855469 127.828125 202.917969 130.476562 " fill-opacity="1" fill-rule="nonzero"/><path fill="rgb(67.449951%, 40.779114%, 16.468811%)" d="M 202.917969 113.199219 L 199.398438 113.199219 C 198.921875 109.203125 197.539062 105.484375 195.460938 102.257812 C 198.8125 105.167969 201.410156 108.925781 202.917969 113.199219 " fill-opacity="1" fill-rule="nonzero"/><path fill="rgb(12.939453%, 35.688782%, 24.708557%)" d="M 178.476562 147.757812 L 178.210938 147.757812 C 178.207031 147.757812 178.199219 147.757812 178.199219 147.753906 L 178.066406 147.753906 C 178.054688 147.753906 178.042969 147.753906 178.03125 147.753906 L 177.964844 147.753906 C 177.960938 147.75 177.953125 147.75 177.949219 147.75 L 177.867188 147.75 C 177.851562 147.75 177.835938 147.75 177.816406 147.75 L 177.800781 147.75 C 177.785156 147.746094 177.769531 147.746094 177.75 147.746094 L 177.734375 147.746094 C 168.898438 147.5 161.171875 142.828125 156.683594 135.867188 C 161.230469 139.816406 167.167969 142.203125 173.660156 142.203125 C 182.734375 142.203125 190.71875 137.539062 195.347656 130.476562 L 202.917969 130.476562 C 199.472656 140.230469 190.355469 147.300781 179.53125 147.734375 C 179.503906 147.738281 179.476562 147.738281 179.449219 147.738281 C 179.425781 147.738281 179.40625 147.742188 179.382812 147.742188 L 179.363281 147.742188 C 179.34375 147.742188 179.324219 147.742188 179.304688 147.746094 L 179.238281 147.746094 C 179.238281 147.746094 179.234375 147.746094 179.234375 147.746094 L 179.160156 147.746094 C 179.15625 147.75 179.152344 147.75 179.152344 147.75 L 179.113281 147.75 C 179.109375 147.75 179.101562 147.75 179.09375 147.75 L 178.996094 147.75 C 178.992188 147.753906 178.988281 147.753906 178.984375 147.753906 L 178.914062 147.753906 C 178.910156 147.753906 178.90625 147.753906 178.902344 147.753906 L 178.765625 147.753906 C 178.761719 147.753906 178.757812 147.753906 178.753906 147.757812 L 178.476562 147.757812 " fill-opacity="1" fill-rule="nonzero"/><path fill="rgb(100%, 100%, 100%)" d="M 153.652344 125.464844 C 153.632812 125.464844 153.609375 125.457031 153.585938 125.433594 C 153.109375 124.957031 152.894531 119.257812 155.035156 113.199219 L 158.417969 113.199219 C 154.992188 119.410156 154.191406 125.464844 153.652344 125.464844 " fill-opacity="1" fill-rule="nonzero"/><path fill="rgb(97.24884%, 65.879822%, 38.42926%)" d="M 158.417969 113.199219 L 155.035156 113.199219 C 156.140625 110.0625 157.878906 106.832031 160.53125 104.175781 C 166.425781 98.28125 175.167969 96.917969 179.378906 96.917969 C 180.730469 96.917969 181.613281 97.058594 181.789062 97.234375 C 182.511719 97.957031 170.9375 99.007812 163.152344 106.796875 C 161.175781 108.773438 159.628906 110.996094 158.417969 113.199219 " fill-opacity="1" fill-rule="nonzero"/><g fill="rgb(0%, 0%, 0%)" fill-opacity="1"><g transform="translate(36.389131, 360.230564)"><g><path d="M 9.5 -7.828125 C 10 -7.828125 10.453125 -7.84375 10.859375 -7.875 C 11.265625 -7.914062 11.695312 -7.992188 12.15625 -8.109375 L 12.390625 -5.453125 C 11.929688 -5.367188 11.484375 -5.3125 11.046875 -5.28125 C 10.609375 -5.25 10.1875 -5.234375 9.78125 -5.234375 C 8.789062 -5.234375 7.9375 -5.316406 7.21875 -5.484375 C 6.507812 -5.660156 5.925781 -5.851562 5.46875 -6.0625 C 5.3125 -5.988281 5.148438 -5.898438 4.984375 -5.796875 C 5.554688 -5.140625 6.226562 -4.453125 7 -3.734375 C 7.769531 -3.015625 8.570312 -2.316406 9.40625 -1.640625 L 7.40625 0.40625 C 6.113281 -0.769531 4.953125 -1.882812 3.921875 -2.9375 C 2.898438 -3.988281 2.117188 -4.875 1.578125 -5.59375 C 1.210938 -6.0625 0.976562 -6.457031 0.875 -6.78125 C 0.78125 -7.113281 0.734375 -7.414062 0.734375 -7.6875 C 0.734375 -8.070312 0.867188 -8.460938 1.140625 -8.859375 C 1.410156 -9.253906 1.890625 -9.453125 2.578125 -9.453125 C 3.304688 -9.453125 3.925781 -9.210938 4.4375 -8.734375 C 4.613281 -9.035156 4.734375 -9.359375 4.796875 -9.703125 C 4.867188 -10.046875 4.90625 -10.398438 4.90625 -10.765625 C 4.90625 -11.179688 4.851562 -11.601562 4.75 -12.03125 L 0 -12.03125 L 0 -14.609375 L 12.0625 -14.609375 L 12.0625 -12.03125 L 7.84375 -12.03125 C 7.90625 -11.8125 7.957031 -11.554688 8 -11.265625 C 8.039062 -10.972656 8.0625 -10.640625 8.0625 -10.265625 C 8.0625 -9.796875 8.015625 -9.375 7.921875 -9 C 7.828125 -8.625 7.691406 -8.285156 7.515625 -7.984375 C 7.828125 -7.941406 8.144531 -7.90625 8.46875 -7.875 C 8.789062 -7.84375 9.132812 -7.828125 9.5 -7.828125 Z M 9.5 -7.828125 "/></g></g></g><g fill="rgb(0%, 0%, 0%)" fill-opacity="1"><g transform="translate(48.814614, 360.230564)"><g><path d="M 14.5625 -12.03125 L 12.34375 -12.03125 L 12.34375 0 L 9.1875 0 L 9.1875 -2.9375 C 8.65625 -2.632812 8.125 -2.410156 7.59375 -2.265625 C 7.0625 -2.128906 6.425781 -2.0625 5.6875 -2.0625 C 4.78125 -2.0625 3.960938 -2.21875 3.234375 -2.53125 C 2.503906 -2.851562 1.925781 -3.328125 1.5 -3.953125 C 1.082031 -4.585938 0.875 -5.378906 0.875 -6.328125 C 0.875 -7.617188 1.332031 -8.648438 2.25 -9.421875 C 3.164062 -10.203125 4.390625 -10.59375 5.921875 -10.59375 C 6.421875 -10.59375 6.90625 -10.570312 7.375 -10.53125 C 7.84375 -10.5 8.210938 -10.453125 8.484375 -10.390625 L 8.25 -7.78125 C 7.71875 -7.90625 7.125 -7.96875 6.46875 -7.96875 C 5.632812 -7.96875 5.015625 -7.820312 4.609375 -7.53125 C 4.210938 -7.238281 4.015625 -6.835938 4.015625 -6.328125 C 4.015625 -5.691406 4.207031 -5.253906 4.59375 -5.015625 C 4.976562 -4.785156 5.4375 -4.671875 5.96875 -4.671875 C 6.65625 -4.671875 7.257812 -4.800781 7.78125 -5.0625 C 8.3125 -5.332031 8.78125 -5.691406 9.1875 -6.140625 L 9.1875 -12.03125 L 0 -12.03125 L 0 -14.609375 L 14.5625 -14.609375 Z M 14.5625 -12.03125 "/></g></g></g><g fill="rgb(0%, 0%, 0%)" fill-opacity="1"><g transform="translate(65.234005, 360.230564)"><g><path d="M 9.40625 -1.640625 L 7.40625 0.40625 C 6.113281 -0.769531 4.953125 -1.882812 3.921875 -2.9375 C 2.898438 -3.988281 2.117188 -4.875 1.578125 -5.59375 C 1.210938 -6.0625 0.976562 -6.457031 0.875 -6.78125 C 0.78125 -7.113281 0.734375 -7.414062 0.734375 -7.6875 C 0.734375 -8.070312 0.867188 -8.460938 1.140625 -8.859375 C 1.410156 -9.253906 1.890625 -9.453125 2.578125 -9.453125 C 3.304688 -9.453125 3.925781 -9.210938 4.4375 -8.734375 C 4.613281 -9.035156 4.734375 -9.359375 4.796875 -9.703125 C 4.867188 -10.046875 4.90625 -10.398438 4.90625 -10.765625 C 4.90625 -11.179688 4.851562 -11.601562 4.75 -12.03125 L 0 -12.03125 L 0 -14.609375 L 12.578125 -14.609375 C 13.054688 -14.773438 13.601562 -14.859375 14.21875 -14.859375 C 15.550781 -14.859375 16.648438 -14.503906 17.515625 -13.796875 C 18.390625 -13.085938 18.828125 -12.050781 18.828125 -10.6875 C 18.828125 -9.78125 18.59375 -8.925781 18.125 -8.125 C 17.664062 -7.332031 16.796875 -6.675781 15.515625 -6.15625 C 16.078125 -5.4375 16.828125 -5.078125 17.765625 -5.078125 C 18.535156 -5.078125 19.210938 -5.21875 19.796875 -5.5 C 20.390625 -5.78125 20.9375 -6.203125 21.4375 -6.765625 L 21.4375 -12.03125 L 19.953125 -12.03125 L 19.953125 -14.609375 L 26.796875 -14.609375 L 26.796875 -12.03125 L 24.578125 -12.03125 L 24.578125 0 L 21.4375 0 L 21.4375 -3.4375 C 20.90625 -3.082031 20.289062 -2.832031 19.59375 -2.6875 C 18.90625 -2.550781 18.21875 -2.484375 17.53125 -2.484375 C 15.289062 -2.484375 13.644531 -3.457031 12.59375 -5.40625 C 11.789062 -5.289062 11.054688 -5.234375 10.390625 -5.234375 C 9.222656 -5.234375 8.222656 -5.316406 7.390625 -5.484375 C 6.566406 -5.660156 5.925781 -5.851562 5.46875 -6.0625 C 5.3125 -5.988281 5.148438 -5.898438 4.984375 -5.796875 C 5.554688 -5.140625 6.226562 -4.453125 7 -3.734375 C 7.769531 -3.015625 8.570312 -2.316406 9.40625 -1.640625 Z M 9.921875 -7.828125 C 10.609375 -7.828125 11.25 -7.847656 11.84375 -7.890625 C 12.4375 -7.941406 13.070312 -8.035156 13.75 -8.171875 C 14.457031 -8.503906 14.953125 -8.890625 15.234375 -9.328125 C 15.523438 -9.765625 15.671875 -10.273438 15.671875 -10.859375 C 15.671875 -11.390625 15.535156 -11.832031 15.265625 -12.1875 C 15.003906 -12.539062 14.597656 -12.71875 14.046875 -12.71875 C 13.734375 -12.71875 13.488281 -12.640625 13.3125 -12.484375 C 13.144531 -12.328125 13.0625 -12.128906 13.0625 -11.890625 C 13.0625 -11.609375 13.160156 -11.382812 13.359375 -11.21875 C 13.566406 -11.050781 13.96875 -10.921875 14.5625 -10.828125 L 13.90625 -8.78125 C 12.84375 -8.925781 12.019531 -9.285156 11.4375 -9.859375 C 10.863281 -10.429688 10.578125 -11.15625 10.578125 -12.03125 L 7.84375 -12.03125 C 7.90625 -11.8125 7.957031 -11.554688 8 -11.265625 C 8.039062 -10.972656 8.0625 -10.640625 8.0625 -10.265625 C 8.0625 -9.816406 8.015625 -9.398438 7.921875 -9.015625 C 7.828125 -8.640625 7.691406 -8.296875 7.515625 -7.984375 C 7.859375 -7.941406 8.226562 -7.90625 8.625 -7.875 C 9.019531 -7.84375 9.453125 -7.828125 9.921875 -7.828125 Z M 9.921875 -7.828125 "/></g></g></g><g fill="rgb(0%, 0%, 0%)" fill-opacity="1"><g transform="translate(93.889761, 360.230564)"><g/></g></g><g fill="rgb(0%, 0%, 0%)" fill-opacity="1"><g transform="translate(101.548768, 360.230564)"><g><path d="M 4.5625 -14.859375 C 6.0625 -14.859375 7.210938 -14.488281 8.015625 -13.75 C 8.359375 -13.4375 8.632812 -13.007812 8.84375 -12.46875 C 9.0625 -11.9375 9.171875 -11.179688 9.171875 -10.203125 L 9.171875 -7.78125 L 13.140625 -7.78125 L 13.140625 -12.03125 L 10.78125 -12.03125 L 10.78125 -14.609375 L 18.515625 -14.609375 L 18.515625 -12.03125 L 16.28125 -12.03125 L 16.28125 0 L 13.140625 0 L 13.140625 -5.1875 L 9.171875 -5.1875 L 9.171875 -4.8125 C 9.171875 -4.125 9.023438 -3.640625 8.734375 -3.359375 C 8.453125 -3.078125 8.046875 -2.9375 7.515625 -2.9375 C 7.191406 -2.9375 6.832031 -3.039062 6.4375 -3.25 C 6.039062 -3.46875 5.671875 -3.75 5.328125 -4.09375 C 4.984375 -4.4375 4.695312 -4.804688 4.46875 -5.203125 C 4.25 -5.597656 4.140625 -5.976562 4.140625 -6.34375 C 4.140625 -6.738281 4.25 -7.078125 4.46875 -7.359375 C 4.6875 -7.640625 5.125 -7.78125 5.78125 -7.78125 L 6.015625 -7.78125 L 6.015625 -10.15625 C 6.015625 -10.71875 5.976562 -11.144531 5.90625 -11.4375 C 5.832031 -11.738281 5.734375 -11.984375 5.609375 -12.171875 C 5.359375 -12.515625 4.976562 -12.6875 4.46875 -12.6875 C 4.132812 -12.6875 3.882812 -12.613281 3.71875 -12.46875 C 3.5625 -12.320312 3.484375 -12.128906 3.484375 -11.890625 C 3.484375 -11.578125 3.617188 -11.328125 3.890625 -11.140625 C 4.160156 -10.960938 4.625 -10.859375 5.28125 -10.828125 L 5.09375 -8.671875 C 3.894531 -8.765625 2.910156 -9.070312 2.140625 -9.59375 C 1.367188 -10.125 0.984375 -10.929688 0.984375 -12.015625 C 0.984375 -12.671875 1.144531 -13.203125 1.46875 -13.609375 C 1.800781 -14.023438 2.238281 -14.335938 2.78125 -14.546875 C 3.320312 -14.753906 3.914062 -14.859375 4.5625 -14.859375 Z M 4.5625 -14.859375 "/></g></g></g><g fill="rgb(0%, 0%, 0%)" fill-opacity="1"><g transform="translate(119.703706, 360.230564)"><g><path d="M 5.03125 -12.03125 L 5.03125 0 L 1.875 0 L 1.875 -12.03125 L 0 -12.03125 L 0 -14.609375 L 7.265625 -14.609375 L 7.265625 -12.03125 Z M 5.03125 -12.03125 "/></g></g></g><g fill="rgb(0%, 0%, 0%)" fill-opacity="1"><g transform="translate(128.818846, 360.230564)"><g><path d="M 9.796875 -1.6875 L 7.75 0.40625 C 6.375 -0.769531 5.132812 -1.882812 4.03125 -2.9375 C 2.9375 -3.988281 2.117188 -4.875 1.578125 -5.59375 C 1.210938 -6.0625 0.976562 -6.457031 0.875 -6.78125 C 0.78125 -7.113281 0.734375 -7.414062 0.734375 -7.6875 C 0.734375 -8.070312 0.867188 -8.460938 1.140625 -8.859375 C 1.410156 -9.253906 1.890625 -9.453125 2.578125 -9.453125 C 3.367188 -9.453125 4.035156 -9.164062 4.578125 -8.59375 C 5.410156 -9.144531 5.828125 -9.875 5.828125 -10.78125 C 5.828125 -11.238281 5.78125 -11.65625 5.6875 -12.03125 L 0 -12.03125 L 0 -14.609375 L 10.640625 -14.609375 L 10.640625 -12.03125 L 8.765625 -12.03125 C 8.828125 -11.8125 8.878906 -11.554688 8.921875 -11.265625 C 8.960938 -10.972656 8.984375 -10.640625 8.984375 -10.265625 C 8.984375 -9.179688 8.648438 -8.269531 7.984375 -7.53125 C 7.328125 -6.789062 6.394531 -6.191406 5.1875 -5.734375 C 5.800781 -5.117188 6.503906 -4.453125 7.296875 -3.734375 C 8.097656 -3.015625 8.929688 -2.332031 9.796875 -1.6875 Z M 9.796875 -1.6875 "/></g></g></g><g fill="rgb(0%, 0%, 0%)" fill-opacity="1"><g transform="translate(141.316037, 360.230564)"><g><path d="M 12.78125 -12.03125 L 12.78125 0 L 9.640625 0 L 9.640625 -7.03125 L 7.5 -7.03125 C 6.632812 -7.03125 5.988281 -6.984375 5.5625 -6.890625 C 5.144531 -6.804688 4.8125 -6.664062 4.5625 -6.46875 C 4.21875 -6.1875 4.046875 -5.785156 4.046875 -5.265625 C 4.046875 -4.734375 4.285156 -4.179688 4.765625 -3.609375 C 5.253906 -3.035156 5.96875 -2.394531 6.90625 -1.6875 L 4.859375 0.40625 C 4.128906 -0.207031 3.460938 -0.835938 2.859375 -1.484375 C 2.265625 -2.140625 1.785156 -2.820312 1.421875 -3.53125 C 1.066406 -4.25 0.890625 -5 0.890625 -5.78125 C 0.890625 -6.34375 0.992188 -6.847656 1.203125 -7.296875 C 1.421875 -7.753906 1.703125 -8.132812 2.046875 -8.4375 C 2.515625 -8.84375 3.082031 -9.140625 3.75 -9.328125 C 4.414062 -9.515625 5.359375 -9.609375 6.578125 -9.609375 L 9.640625 -9.609375 L 9.640625 -12.03125 L 0 -12.03125 L 0 -14.609375 L 15 -14.609375 L 15 -12.03125 Z M 12.78125 -12.03125 "/></g></g></g><g fill="rgb(0%, 0%, 0%)" fill-opacity="1"><g transform="translate(158.181681, 360.230564)"><g/></g></g><g fill="rgb(0%, 0%, 0%)" fill-opacity="1"><g transform="translate(165.840688, 360.230564)"><g><path d="M 7.5 -5.921875 L 1.296875 -5.921875 L 1.296875 -8.484375 L 7.5 -8.484375 Z M 7.5 -5.921875 "/></g></g></g><g fill="rgb(0%, 0%, 0%)" fill-opacity="1"><g transform="translate(176.834755, 360.230564)"><g/></g></g><g fill="rgb(0%, 0%, 0%)" fill-opacity="1"><g transform="translate(184.493761, 360.230564)"><g><path d="M 1.875 -12.03125 L 0 -12.03125 L 0 -14.609375 L 1.765625 -14.609375 C 1.578125 -15.023438 1.421875 -15.425781 1.296875 -15.8125 C 1.179688 -16.207031 1.125 -16.597656 1.125 -16.984375 C 1.125 -18.222656 1.617188 -19.210938 2.609375 -19.953125 C 3.597656 -20.691406 5.046875 -21.0625 6.953125 -21.0625 C 8.691406 -21.0625 10.273438 -20.753906 11.703125 -20.140625 C 13.128906 -19.523438 14.425781 -18.71875 15.59375 -17.71875 C 16.757812 -16.71875 17.820312 -15.628906 18.78125 -14.453125 L 15.1875 -14.453125 C 14.019531 -15.734375 12.789062 -16.71875 11.5 -17.40625 C 10.207031 -18.101562 8.84375 -18.453125 7.40625 -18.453125 C 6.382812 -18.453125 5.609375 -18.265625 5.078125 -17.890625 C 4.554688 -17.523438 4.296875 -17.019531 4.296875 -16.375 C 4.296875 -16.050781 4.34375 -15.734375 4.4375 -15.421875 C 4.53125 -15.117188 4.648438 -14.847656 4.796875 -14.609375 L 7.265625 -14.609375 L 7.265625 -12.03125 L 5.03125 -12.03125 L 5.03125 0 L 1.875 0 Z M 1.875 -12.03125 "/></g></g></g><g fill="rgb(0%, 0%, 0%)" fill-opacity="1"><g transform="translate(191.398731, 360.230564)"><g><path d="M 14.5625 -12.03125 L 12.34375 -12.03125 L 12.34375 0 L 9.1875 0 L 9.1875 -2.9375 C 8.65625 -2.632812 8.125 -2.410156 7.59375 -2.265625 C 7.0625 -2.128906 6.425781 -2.0625 5.6875 -2.0625 C 4.78125 -2.0625 3.960938 -2.21875 3.234375 -2.53125 C 2.503906 -2.851562 1.925781 -3.328125 1.5 -3.953125 C 1.082031 -4.585938 0.875 -5.378906 0.875 -6.328125 C 0.875 -7.617188 1.332031 -8.648438 2.25 -9.421875 C 3.164062 -10.203125 4.390625 -10.59375 5.921875 -10.59375 C 6.421875 -10.59375 6.90625 -10.570312 7.375 -10.53125 C 7.84375 -10.5 8.210938 -10.453125 8.484375 -10.390625 L 8.25 -7.78125 C 7.71875 -7.90625 7.125 -7.96875 6.46875 -7.96875 C 5.632812 -7.96875 5.015625 -7.820312 4.609375 -7.53125 C 4.210938 -7.238281 4.015625 -6.835938 4.015625 -6.328125 C 4.015625 -5.691406 4.207031 -5.253906 4.59375 -5.015625 C 4.976562 -4.785156 5.4375 -4.671875 5.96875 -4.671875 C 6.65625 -4.671875 7.257812 -4.800781 7.78125 -5.0625 C 8.3125 -5.332031 8.78125 -5.691406 9.1875 -6.140625 L 9.1875 -12.03125 L 0 -12.03125 L 0 -14.609375 L 14.5625 -14.609375 Z M 14.5625 -12.03125 "/></g></g></g><g fill="rgb(0%, 0%, 0%)" fill-opacity="1"><g transform="translate(207.818126, 360.230564)"><g><path d="M 19.671875 -12.03125 L 12.109375 -12.03125 L 12.109375 -8.765625 C 12.859375 -9.203125 13.71875 -9.421875 14.6875 -9.421875 C 15.800781 -9.421875 16.710938 -9.078125 17.421875 -8.390625 C 18.140625 -7.703125 18.5 -6.742188 18.5 -5.515625 C 18.5 -4.828125 18.367188 -4.054688 18.109375 -3.203125 C 17.847656 -2.347656 17.425781 -1.492188 16.84375 -0.640625 L 14.09375 -2.15625 C 14.4375 -2.644531 14.726562 -3.144531 14.96875 -3.65625 C 15.21875 -4.175781 15.34375 -4.710938 15.34375 -5.265625 C 15.34375 -5.847656 15.21875 -6.253906 14.96875 -6.484375 C 14.726562 -6.722656 14.414062 -6.84375 14.03125 -6.84375 C 13.664062 -6.84375 13.316406 -6.734375 12.984375 -6.515625 C 12.648438 -6.296875 12.359375 -6.054688 12.109375 -5.796875 L 12.109375 0 L 8.953125 0 L 8.953125 -2.984375 C 8.429688 -2.679688 7.910156 -2.453125 7.390625 -2.296875 C 6.867188 -2.140625 6.257812 -2.0625 5.5625 -2.0625 C 4.707031 -2.0625 3.921875 -2.21875 3.203125 -2.53125 C 2.492188 -2.851562 1.925781 -3.328125 1.5 -3.953125 C 1.082031 -4.585938 0.875 -5.378906 0.875 -6.328125 C 0.875 -7.179688 1.082031 -7.929688 1.5 -8.578125 C 1.925781 -9.222656 2.515625 -9.71875 3.265625 -10.0625 C 4.015625 -10.414062 4.882812 -10.59375 5.875 -10.59375 C 6.3125 -10.59375 6.753906 -10.570312 7.203125 -10.53125 C 7.648438 -10.5 8 -10.453125 8.25 -10.390625 L 8.015625 -7.78125 C 7.515625 -7.90625 6.957031 -7.96875 6.34375 -7.96875 C 5.601562 -7.96875 5.03125 -7.820312 4.625 -7.53125 C 4.21875 -7.238281 4.015625 -6.835938 4.015625 -6.328125 C 4.015625 -5.691406 4.207031 -5.253906 4.59375 -5.015625 C 4.988281 -4.785156 5.414062 -4.671875 5.875 -4.671875 C 6.53125 -4.671875 7.113281 -4.816406 7.625 -5.109375 C 8.132812 -5.410156 8.578125 -5.757812 8.953125 -6.15625 L 8.953125 -12.03125 L 0 -12.03125 L 0 -14.609375 L 19.671875 -14.609375 Z M 19.671875 -12.03125 "/></g></g></g><g fill="rgb(0%, 0%, 0%)" fill-opacity="1"><g transform="translate(229.357549, 360.230564)"><g><path d="M 1.875 -12.03125 L 0 -12.03125 L 0 -14.609375 L 1.765625 -14.609375 C 1.554688 -15.023438 1.394531 -15.421875 1.28125 -15.796875 C 1.175781 -16.179688 1.125 -16.585938 1.125 -17.015625 C 1.125 -18.265625 1.65625 -19.25 2.71875 -19.96875 C 3.789062 -20.695312 5.34375 -21.0625 7.375 -21.0625 C 9.019531 -21.0625 10.539062 -20.875 11.9375 -20.5 C 13.34375 -20.132812 14.632812 -19.640625 15.8125 -19.015625 C 16.988281 -18.390625 18.050781 -17.679688 19 -16.890625 C 19.957031 -16.097656 20.816406 -15.285156 21.578125 -14.453125 L 17.84375 -14.453125 C 16.457031 -15.691406 14.90625 -16.664062 13.1875 -17.375 C 11.476562 -18.09375 9.707031 -18.453125 7.875 -18.453125 C 5.488281 -18.453125 4.296875 -17.742188 4.296875 -16.328125 C 4.296875 -16.003906 4.34375 -15.695312 4.4375 -15.40625 C 4.53125 -15.113281 4.648438 -14.847656 4.796875 -14.609375 L 7.265625 -14.609375 L 7.265625 -12.03125 L 5.03125 -12.03125 L 5.03125 0 L 1.875 0 Z M 1.875 -12.03125 "/></g></g></g><g fill="rgb(0%, 0%, 0%)" fill-opacity="1"><g transform="translate(236.26252, 360.230564)"><g><path d="M 15.609375 -12.03125 L 15.609375 0 L 12.453125 0 L 12.453125 -5.5 C 12.035156 -5.40625 11.601562 -5.335938 11.15625 -5.296875 C 10.707031 -5.253906 10.25 -5.234375 9.78125 -5.234375 C 8.789062 -5.234375 7.9375 -5.316406 7.21875 -5.484375 C 6.507812 -5.660156 5.925781 -5.851562 5.46875 -6.0625 C 5.3125 -5.988281 5.148438 -5.898438 4.984375 -5.796875 C 5.554688 -5.140625 6.226562 -4.453125 7 -3.734375 C 7.769531 -3.015625 8.570312 -2.316406 9.40625 -1.640625 L 7.40625 0.40625 C 6.113281 -0.769531 4.953125 -1.882812 3.921875 -2.9375 C 2.898438 -3.988281 2.117188 -4.875 1.578125 -5.59375 C 1.210938 -6.0625 0.976562 -6.457031 0.875 -6.78125 C 0.78125 -7.113281 0.734375 -7.414062 0.734375 -7.6875 C 0.734375 -8.070312 0.867188 -8.460938 1.140625 -8.859375 C 1.410156 -9.253906 1.890625 -9.453125 2.578125 -9.453125 C 3.304688 -9.453125 3.925781 -9.210938 4.4375 -8.734375 C 4.613281 -9.035156 4.734375 -9.359375 4.796875 -9.703125 C 4.867188 -10.046875 4.90625 -10.398438 4.90625 -10.765625 C 4.90625 -11.179688 4.851562 -11.601562 4.75 -12.03125 L 0 -12.03125 L 0 -14.609375 L 17.8125 -14.609375 L 17.8125 -12.03125 Z M 9.5 -7.828125 C 10.0625 -7.828125 10.570312 -7.847656 11.03125 -7.890625 C 11.488281 -7.941406 11.960938 -8.035156 12.453125 -8.171875 L 12.453125 -12.03125 L 7.84375 -12.03125 C 7.90625 -11.8125 7.957031 -11.554688 8 -11.265625 C 8.039062 -10.972656 8.0625 -10.640625 8.0625 -10.265625 C 8.0625 -9.796875 8.015625 -9.375 7.921875 -9 C 7.828125 -8.625 7.691406 -8.285156 7.515625 -7.984375 C 7.828125 -7.941406 8.144531 -7.90625 8.46875 -7.875 C 8.789062 -7.84375 9.132812 -7.828125 9.5 -7.828125 Z M 9.5 -7.828125 "/></g></g></g><g fill="rgb(0%, 0%, 0%)" fill-opacity="1"><g transform="translate(255.946526, 360.230564)"><g><path d="M 12.78125 -12.03125 L 12.78125 0 L 9.640625 0 L 9.640625 -7.03125 L 7.5 -7.03125 C 6.632812 -7.03125 5.988281 -6.984375 5.5625 -6.890625 C 5.144531 -6.804688 4.8125 -6.664062 4.5625 -6.46875 C 4.21875 -6.1875 4.046875 -5.785156 4.046875 -5.265625 C 4.046875 -4.734375 4.285156 -4.179688 4.765625 -3.609375 C 5.253906 -3.035156 5.96875 -2.394531 6.90625 -1.6875 L 4.859375 0.40625 C 4.128906 -0.207031 3.460938 -0.835938 2.859375 -1.484375 C 2.265625 -2.140625 1.785156 -2.820312 1.421875 -3.53125 C 1.066406 -4.25 0.890625 -5 0.890625 -5.78125 C 0.890625 -6.34375 0.992188 -6.847656 1.203125 -7.296875 C 1.421875 -7.753906 1.703125 -8.132812 2.046875 -8.4375 C 2.515625 -8.84375 3.082031 -9.140625 3.75 -9.328125 C 4.414062 -9.515625 5.359375 -9.609375 6.578125 -9.609375 L 9.640625 -9.609375 L 9.640625 -12.03125 L 0 -12.03125 L 0 -14.609375 L 15 -14.609375 L 15 -12.03125 Z M 12.78125 -12.03125 "/></g></g></g><g fill="rgb(0%, 0%, 0%)" fill-opacity="1"><g transform="translate(272.812156, 360.230564)"><g/></g></g><g fill="rgb(0%, 0%, 0%)" fill-opacity="1"><g transform="translate(280.471164, 360.230564)"><g><path d="M 0.84375 -1.78125 L 4.140625 -3.484375 C 3.578125 -3.679688 3.113281 -3.960938 2.75 -4.328125 C 2.351562 -4.734375 2.0625 -5.207031 1.875 -5.75 C 1.6875 -6.300781 1.59375 -7.085938 1.59375 -8.109375 L 1.59375 -12.03125 L 0 -12.03125 L 0 -14.609375 L 14.734375 -14.609375 L 14.734375 -12.03125 L 12.53125 -12.03125 L 12.53125 0 L 9.375 0 L 9.375 -3.875 L 2.4375 0.40625 Z M 9.375 -12.03125 L 4.75 -12.03125 L 4.75 -8.296875 C 4.75 -7.554688 4.785156 -7.035156 4.859375 -6.734375 C 4.941406 -6.441406 5.082031 -6.1875 5.28125 -5.96875 C 5.550781 -5.695312 5.984375 -5.5625 6.578125 -5.5625 C 7.171875 -5.5625 7.710938 -5.707031 8.203125 -6 C 8.703125 -6.289062 9.09375 -6.578125 9.375 -6.859375 Z M 9.375 -12.03125 "/></g></g></g><g fill="rgb(0%, 0%, 0%)" fill-opacity="1"><g transform="translate(297.078445, 360.230564)"><g><path d="M 15.25 -14.609375 L 15.25 -12.03125 L 13.046875 -12.03125 L 13.046875 0 L 9.890625 0 L 9.890625 -3.453125 C 8.890625 -2.804688 7.6875 -2.484375 6.28125 -2.484375 C 5.207031 -2.484375 4.285156 -2.726562 3.515625 -3.21875 C 2.753906 -3.707031 2.140625 -4.378906 1.671875 -5.234375 C 1.203125 -6.085938 0.875 -7.050781 0.6875 -8.125 C 1.570312 -8.300781 2.234375 -8.570312 2.671875 -8.9375 C 3.117188 -9.3125 3.34375 -9.816406 3.34375 -10.453125 C 3.34375 -10.753906 3.296875 -11.035156 3.203125 -11.296875 C 3.109375 -11.566406 2.988281 -11.8125 2.84375 -12.03125 L 0 -12.03125 L 0 -14.609375 Z M 4.0625 -6.765625 C 4.3125 -6.234375 4.632812 -5.816406 5.03125 -5.515625 C 5.4375 -5.222656 5.945312 -5.078125 6.5625 -5.078125 C 7.882812 -5.078125 8.992188 -5.640625 9.890625 -6.765625 L 9.890625 -12.03125 L 5.875 -12.03125 C 6.0625 -11.695312 6.207031 -11.359375 6.3125 -11.015625 C 6.425781 -10.671875 6.484375 -10.28125 6.484375 -9.84375 C 6.484375 -8.414062 5.675781 -7.390625 4.0625 -6.765625 Z M 4.0625 -6.765625 "/></g></g></g><g fill="rgb(0%, 0%, 0%)" fill-opacity="1"><g transform="translate(311.992254, 360.230564)"><g><path d="M 5.03125 -12.03125 L 5.03125 0 L 1.875 0 L 1.875 -12.03125 L 0 -12.03125 L 0 -14.609375 L 7.265625 -14.609375 L 7.265625 -12.03125 Z M 5.03125 -12.03125 "/></g></g></g><g fill="rgb(0%, 0%, 0%)" fill-opacity="1"><g transform="translate(321.107394, 360.230564)"><g><path d="M 15.609375 -12.03125 L 15.609375 0 L 12.453125 0 L 12.453125 -5.5 C 12.035156 -5.40625 11.601562 -5.335938 11.15625 -5.296875 C 10.707031 -5.253906 10.25 -5.234375 9.78125 -5.234375 C 8.789062 -5.234375 7.9375 -5.316406 7.21875 -5.484375 C 6.507812 -5.660156 5.925781 -5.851562 5.46875 -6.0625 C 5.3125 -5.988281 5.148438 -5.898438 4.984375 -5.796875 C 5.554688 -5.140625 6.226562 -4.453125 7 -3.734375 C 7.769531 -3.015625 8.570312 -2.316406 9.40625 -1.640625 L 7.40625 0.40625 C 6.113281 -0.769531 4.953125 -1.882812 3.921875 -2.9375 C 2.898438 -3.988281 2.117188 -4.875 1.578125 -5.59375 C 1.210938 -6.0625 0.976562 -6.457031 0.875 -6.78125 C 0.78125 -7.113281 0.734375 -7.414062 0.734375 -7.6875 C 0.734375 -8.070312 0.867188 -8.460938 1.140625 -8.859375 C 1.410156 -9.253906 1.890625 -9.453125 2.578125 -9.453125 C 3.304688 -9.453125 3.925781 -9.210938 4.4375 -8.734375 C 4.613281 -9.035156 4.734375 -9.359375 4.796875 -9.703125 C 4.867188 -10.046875 4.90625 -10.398438 4.90625 -10.765625 C 4.90625 -11.179688 4.851562 -11.601562 4.75 -12.03125 L 0 -12.03125 L 0 -14.609375 L 17.8125 -14.609375 L 17.8125 -12.03125 Z M 9.5 -7.828125 C 10.0625 -7.828125 10.570312 -7.847656 11.03125 -7.890625 C 11.488281 -7.941406 11.960938 -8.035156 12.453125 -8.171875 L 12.453125 -12.03125 L 7.84375 -12.03125 C 7.90625 -11.8125 7.957031 -11.554688 8 -11.265625 C 8.039062 -10.972656 8.0625 -10.640625 8.0625 -10.265625 C 8.0625 -9.796875 8.015625 -9.375 7.921875 -9 C 7.828125 -8.625 7.691406 -8.285156 7.515625 -7.984375 C 7.828125 -7.941406 8.144531 -7.90625 8.46875 -7.875 C 8.789062 -7.84375 9.132812 -7.828125 9.5 -7.828125 Z M 9.5 -7.828125 "/></g></g></g><g fill="rgb(1.179504%, 58.039856%, 79.60968%)" fill-opacity="1"><g transform="translate(124.359455, 312.749806)"><g><path d="M 35.4375 -27.3125 L 35.4375 0 L 28.28125 0 L 28.28125 -12.484375 C 27.320312 -12.273438 26.332031 -12.125 25.3125 -12.03125 C 24.300781 -11.945312 23.265625 -11.90625 22.203125 -11.90625 C 19.953125 -11.90625 18.019531 -12.097656 16.40625 -12.484375 C 14.789062 -12.878906 13.46875 -13.304688 12.4375 -13.765625 C 12.082031 -13.585938 11.707031 -13.394531 11.3125 -13.1875 C 12.625 -11.6875 14.148438 -10.117188 15.890625 -8.484375 C 17.640625 -6.847656 19.457031 -5.265625 21.34375 -3.734375 L 16.8125 0.90625 C 13.894531 -1.757812 11.269531 -4.285156 8.9375 -6.671875 C 6.601562 -9.054688 4.816406 -11.066406 3.578125 -12.703125 C 2.753906 -13.765625 2.226562 -14.671875 2 -15.421875 C 1.769531 -16.171875 1.65625 -16.847656 1.65625 -17.453125 C 1.65625 -18.335938 1.960938 -19.222656 2.578125 -20.109375 C 3.203125 -21.003906 4.300781 -21.453125 5.875 -21.453125 C 7.507812 -21.453125 8.910156 -20.914062 10.078125 -19.84375 C 10.472656 -20.519531 10.75 -21.25 10.90625 -22.03125 C 11.070312 -22.820312 11.15625 -23.625 11.15625 -24.4375 C 11.15625 -25.394531 11.03125 -26.351562 10.78125 -27.3125 L 0 -27.3125 L 0 -33.1875 L 40.453125 -33.1875 L 40.453125 -27.3125 Z M 21.5625 -17.765625 C 22.84375 -17.765625 24.003906 -17.816406 25.046875 -17.921875 C 26.097656 -18.035156 27.175781 -18.25 28.28125 -18.5625 L 28.28125 -27.3125 L 17.828125 -27.3125 C 17.960938 -26.820312 18.070312 -26.242188 18.15625 -25.578125 C 18.25 -24.921875 18.296875 -24.164062 18.296875 -23.3125 C 18.296875 -22.25 18.1875 -21.289062 17.96875 -20.4375 C 17.757812 -19.582031 17.460938 -18.816406 17.078125 -18.140625 C 17.785156 -18.035156 18.503906 -17.945312 19.234375 -17.875 C 19.960938 -17.800781 20.738281 -17.765625 21.5625 -17.765625 Z M 21.5625 -17.765625 "/></g></g></g><g fill="rgb(1.179504%, 58.039856%, 79.60968%)" fill-opacity="1"><g transform="translate(164.05596, 312.749806)"><g><path d="M -14.09375 -0.375 C -11.957031 -1.1875 -9.890625 -1.59375 -7.890625 -1.59375 C -5.046875 -1.59375 -2.8125 -0.835938 -1.1875 0.671875 C 0.425781 2.179688 1.234375 4.109375 1.234375 6.453125 C 1.234375 8.734375 0.398438 10.609375 -1.265625 12.078125 C -2.941406 13.554688 -5.332031 14.296875 -8.4375 14.296875 C -10.988281 14.296875 -13.28125 13.929688 -15.3125 13.203125 C -17.34375 12.472656 -19.203125 11.441406 -20.890625 10.109375 C -22.578125 8.773438 -24.203125 7.21875 -25.765625 5.4375 L -20.921875 1.921875 C -18.710938 4.410156 -16.679688 6.195312 -14.828125 7.28125 C -12.984375 8.363281 -11.007812 8.90625 -8.90625 8.90625 C -7.695312 8.90625 -6.753906 8.679688 -6.078125 8.234375 C -5.398438 7.796875 -5.0625 7.132812 -5.0625 6.25 C -5.0625 5.351562 -5.375 4.71875 -6 4.34375 C -6.625 3.96875 -7.363281 3.78125 -8.21875 3.78125 C -8.925781 3.78125 -9.617188 3.859375 -10.296875 4.015625 C -10.972656 4.179688 -11.613281 4.390625 -12.21875 4.640625 Z M -14.09375 -0.375 "/></g></g></g><g fill="rgb(1.179504%, 58.039856%, 79.60968%)" fill-opacity="1"><g transform="translate(167.205327, 312.749806)"><g><path d="M 13.125 -27.3125 L 13.125 -12.0625 C 13.125 -10.632812 12.8125 -9.597656 12.1875 -8.953125 C 11.570312 -8.316406 10.691406 -8 9.546875 -8 C 8.734375 -8 7.875 -8.238281 6.96875 -8.71875 C 6.0625 -9.195312 5.207031 -9.828125 4.40625 -10.609375 C 3.601562 -11.398438 2.941406 -12.25 2.421875 -13.15625 C 1.910156 -14.0625 1.65625 -14.941406 1.65625 -15.796875 C 1.65625 -16.722656 1.894531 -17.539062 2.375 -18.25 C 2.851562 -18.957031 3.875 -19.3125 5.4375 -19.3125 L 5.96875 -19.3125 L 5.96875 -27.3125 L 0 -27.3125 L 0 -33.1875 L 33.296875 -33.1875 L 33.296875 -27.3125 L 28.28125 -27.3125 L 28.28125 0 L 21.125 0 L 21.125 -27.3125 Z M 13.125 -27.3125 "/></g></g></g><g fill="rgb(1.179504%, 58.039856%, 79.60968%)" fill-opacity="1"><g transform="translate(202.901566, 312.749806)"><g><path d="M 30.203125 -27.3125 L 30.203125 0 L 23.046875 0 L 23.046875 -11.796875 L 13.125 -11.796875 L 13.125 -10.890625 C 13.125 -9.316406 12.800781 -8.21875 12.15625 -7.59375 C 11.519531 -6.976562 10.597656 -6.671875 9.390625 -6.671875 C 8.640625 -6.671875 7.820312 -6.910156 6.9375 -7.390625 C 6.050781 -7.867188 5.207031 -8.5 4.40625 -9.28125 C 3.601562 -10.0625 2.941406 -10.90625 2.421875 -11.8125 C 1.910156 -12.726562 1.65625 -13.59375 1.65625 -14.40625 C 1.65625 -15.332031 1.910156 -16.101562 2.421875 -16.71875 C 2.941406 -17.34375 3.945312 -17.65625 5.4375 -17.65625 L 5.96875 -17.65625 L 5.96875 -27.3125 L 0 -27.3125 L 0 -33.1875 L 35.265625 -33.1875 L 35.265625 -27.3125 Z M 23.046875 -27.3125 L 13.125 -27.3125 L 13.125 -17.65625 L 23.046875 -17.65625 Z M 23.046875 -27.3125 "/></g></g></g><g fill="rgb(1.179504%, 58.039856%, 79.60968%)" fill-opacity="1"><g transform="translate(240.502149, 312.749806)"><g/></g></g></svg>